STARTFONT 2.1
COMMENT CVS:Version $Id 1.1
COMMENT
COMMENT (C) CENA/J.L. Vinot, 2002, CENA (Centre d'Etudes de la Navigation Aťrienne)
COMMENT This software is free software; you can redistribute it and/or modify it 
COMMENT under the terms of the GNU Lesser General Public License as published by the Free Software Foundation: 
COMMENT either version 2 of the License, or (at your option) any later version.
COMMENT 
COMMENT This software is distributed in the hope that it will be useful, but WITHOUT ANY WARRANTY; 
COMMENT without even the implied warranty of MERCHANTABILITY or FITNESS FOR A PARTICULAR PURPOSE.  
COMMENT See the GNU Lesser General Public License for more details.
COMMENT 
COMMENT You should have received a copy of the GNU Lesser General Public License along with this software; 
COMMENT if not, write to the Free Software Foundation, Inc., 59 Temple Place - Suite 330, Boston, MA  02111-1307, USA.
COMMENT Please refer to http://www.gnu.org/copyleft/gpl.html
COMMENT 
COMMENT This font has been originally designed by CENA/France for the specific needs of Air Traffic Control. 
COMMENT For example, it must offer good legibility and avoid any confusion between character shapes. 
COMMENT CENA would like to preserve its qualities. If you have any specific need, you can modify this font, 
COMMENT but we would like you to change its name to avoid any confusion between your new font and the original one designed by CENA.
COMMENT Note however, that as implied in the LGPL licence, you must credit CENA for the original work. 
COMMENT Finally, CENA would appreciate it if you send back any enhancement or extension made to the original work. 
COMMENT This statement must be fully included with any further distribution of the font.
COMMENT 
COMMENT to contact us: email to:  pii-contact@cena.fr
COMMENT write to: CENA, 7 avenue Edouard Belin, 31400 Toulouse, France 
FONT -CenaPii-Bleriot Radar-Medium-R-Condensed--12-120-75-75-P-73-ISO8859-15
SIZE 12 72 72

STARTCHAR gcid14
ENCODING 20
SWIDTH 666 0
DWIDTH 8 0
BBX 6 2 1 3
BITMAP
FC
FC
ENDCHAR
STARTCHAR gcid15
ENCODING 21
SWIDTH 833 0
DWIDTH 10 0
BBX 8 8 1 0
BITMAP
40
E0
71
3B
1F
0F
1F
3F
ENDCHAR
STARTCHAR gcid16
ENCODING 22
SWIDTH 833 0
DWIDTH 10 0
BBX 8 8 1 1
BITMAP
3F
1F
0F
1F
3B
71
E0
40
ENDCHAR
STARTCHAR space
ENCODING 32
SWIDTH 583 0
DWIDTH 7 0
BBX 0 0 0 0
BITMAP
ENDCHAR
STARTCHAR exclam
ENCODING 33
SWIDTH 500 0
DWIDTH 6 0
BBX 2 10 2 0
BITMAP
C0
C0
C0
C0
C0
C0
C0
00
C0
C0
ENDCHAR
STARTCHAR quotedbl
ENCODING 34
SWIDTH 500 0
DWIDTH 6 0
BBX 3 3 2 7
BITMAP
A0
A0
A0
ENDCHAR
STARTCHAR numbersign
ENCODING 35
SWIDTH 583 0
DWIDTH 7 0
BBX 5 10 1 0
BITMAP
50
50
F8
F8
50
50
F8
F8
50
50
ENDCHAR
STARTCHAR dollar
ENCODING 36
SWIDTH 666 0
DWIDTH 8 0
BBX 6 12 1 -2
BITMAP
20
78
A8
E0
F0
78
3C
2C
AC
F8
20
20
ENDCHAR
STARTCHAR percent
ENCODING 37
SWIDTH 666 0
DWIDTH 8 0
BBX 7 9 1 0
BITMAP
EC
A8
E8
18
10
30
2E
2A
6E
ENDCHAR
STARTCHAR ampersand
ENCODING 38
SWIDTH 750 0
DWIDTH 9 0
BBX 7 9 1 0
BITMAP
38
6C
68
38
70
DA
CC
DC
76
ENDCHAR
STARTCHAR quotesingle
ENCODING 39
SWIDTH 250 0
DWIDTH 3 0
BBX 1 3 1 7
BITMAP
80
80
80
ENDCHAR
STARTCHAR parenleft
ENCODING 40
SWIDTH 500 0
DWIDTH 6 0
BBX 4 12 1 -2
BITMAP
30
60
40
C0
C0
C0
C0
C0
C0
40
60
30
ENDCHAR
STARTCHAR parenright
ENCODING 41
SWIDTH 500 0
DWIDTH 6 0
BBX 4 12 1 -2
BITMAP
C0
60
20
30
30
30
30
30
30
20
60
C0
ENDCHAR
STARTCHAR asterisk
ENCODING 42
SWIDTH 416 0
DWIDTH 5 0
BBX 4 4 1 5
BITMAP
90
60
60
90
ENDCHAR
STARTCHAR plus
ENCODING 43
SWIDTH 666 0
DWIDTH 8 0
BBX 7 7 1 0
BITMAP
10
10
10
FE
10
10
10
ENDCHAR
STARTCHAR comma
ENCODING 44
SWIDTH 333 0
DWIDTH 4 0
BBX 2 4 1 -2
BITMAP
C0
C0
80
80
ENDCHAR
STARTCHAR hyphen
ENCODING 45
SWIDTH 500 0
DWIDTH 6 0
BBX 4 1 1 3
BITMAP
F0
ENDCHAR
STARTCHAR period
ENCODING 46
SWIDTH 333 0
DWIDTH 4 0
BBX 2 2 1 0
BITMAP
C0
C0
ENDCHAR
STARTCHAR slash
ENCODING 47
SWIDTH 500 0
DWIDTH 6 0
BBX 5 11 0 -1
BITMAP
18
18
18
30
30
30
60
60
60
C0
C0
ENDCHAR
STARTCHAR zero
ENCODING 48
SWIDTH 666 0
DWIDTH 8 0
BBX 7 9 1 0
BITMAP
38
6C
C6
D6
D6
D6
C6
6C
38
ENDCHAR
STARTCHAR one
ENCODING 49
SWIDTH 666 0
DWIDTH 8 0
BBX 5 9 1 0
BITMAP
18
38
78
D8
18
18
18
18
18
ENDCHAR
STARTCHAR two
ENCODING 50
SWIDTH 666 0
DWIDTH 8 0
BBX 7 9 1 0
BITMAP
78
CC
CC
0C
18
18
30
60
FE
ENDCHAR
STARTCHAR three
ENCODING 51
SWIDTH 666 0
DWIDTH 8 0
BBX 6 9 1 0
BITMAP
FC
18
30
78
0C
0C
0C
CC
78
ENDCHAR
STARTCHAR four
ENCODING 52
SWIDTH 666 0
DWIDTH 8 0
BBX 7 9 1 0
BITMAP
18
30
30
64
6C
CC
FE
0C
0C
ENDCHAR
STARTCHAR five
ENCODING 53
SWIDTH 666 0
DWIDTH 8 0
BBX 7 9 1 0
BITMAP
7C
60
60
78
0C
0C
06
CC
78
ENDCHAR
STARTCHAR six
ENCODING 54
SWIDTH 583 0
DWIDTH 7 0
BBX 6 9 1 0
BITMAP
30
60
60
C0
F8
CC
CC
CC
78
ENDCHAR
STARTCHAR seven
ENCODING 55
SWIDTH 666 0
DWIDTH 8 0
BBX 7 9 1 0
BITMAP
FE
0C
0C
18
18
30
30
60
60
ENDCHAR
STARTCHAR eight
ENCODING 56
SWIDTH 666 0
DWIDTH 8 0
BBX 7 9 1 0
BITMAP
78
CC
CC
78
78
CC
CE
CC
78
ENDCHAR
STARTCHAR nine
ENCODING 57
SWIDTH 666 0
DWIDTH 8 0
BBX 6 9 1 0
BITMAP
78
CC
CC
CC
7C
0C
18
18
30
ENDCHAR
STARTCHAR colon
ENCODING 58
SWIDTH 416 0
DWIDTH 5 0
BBX 2 7 2 0
BITMAP
C0
C0
00
00
00
C0
C0
ENDCHAR
STARTCHAR semicolon
ENCODING 59
SWIDTH 416 0
DWIDTH 5 0
BBX 2 9 2 -2
BITMAP
C0
C0
00
00
00
C0
C0
80
80
ENDCHAR
STARTCHAR less
ENCODING 60
SWIDTH 500 0
DWIDTH 6 0
BBX 4 7 1 0
BITMAP
30
60
60
C0
60
60
30
ENDCHAR
STARTCHAR equal
ENCODING 61
SWIDTH 500 0
DWIDTH 6 0
BBX 5 4 1 2
BITMAP
F8
00
00
F8
ENDCHAR
STARTCHAR greater
ENCODING 62
SWIDTH 500 0
DWIDTH 6 0
BBX 4 7 1 0
BITMAP
C0
60
60
30
60
60
C0
ENDCHAR
STARTCHAR question
ENCODING 63
SWIDTH 666 0
DWIDTH 8 0
BBX 6 9 1 0
BITMAP
78
CC
8C
18
30
30
00
30
30
ENDCHAR
STARTCHAR at
ENCODING 64
SWIDTH 1166 0
DWIDTH 14 0
BBX 13 12 1 -3
BITMAP
0F80
38E0
6030
6798
CD98
CD98
CD98
CDB0
66E0
6000
3880
0F00
ENDCHAR
STARTCHAR A
ENCODING 65
SWIDTH 666 0
DWIDTH 8 0
BBX 7 9 1 0
BITMAP
18
38
38
2C
6C
4C
7E
C6
C6
ENDCHAR
STARTCHAR B
ENCODING 66
SWIDTH 666 0
DWIDTH 8 0
BBX 6 9 1 0
BITMAP
F0
D8
CC
D8
F8
CC
CC
CC
F8
ENDCHAR
STARTCHAR C
ENCODING 67
SWIDTH 666 0
DWIDTH 8 0
BBX 6 9 1 0
BITMAP
38
64
C0
C0
C0
C0
C0
64
38
ENDCHAR
STARTCHAR D
ENCODING 68
SWIDTH 666 0
DWIDTH 8 0
BBX 7 9 1 0
BITMAP
F8
CC
C6
C6
C6
C6
C6
CC
F8
ENDCHAR
STARTCHAR E
ENCODING 69
SWIDTH 583 0
DWIDTH 7 0
BBX 5 9 1 0
BITMAP
F8
C0
C0
C0
F0
C0
C0
C0
F8
ENDCHAR
STARTCHAR F
ENCODING 70
SWIDTH 500 0
DWIDTH 6 0
BBX 5 9 1 0
BITMAP
F8
C0
C0
C0
F0
C0
C0
C0
C0
ENDCHAR
STARTCHAR G
ENCODING 71
SWIDTH 750 0
DWIDTH 9 0
BBX 7 9 1 0
BITMAP
3C
66
C0
C0
DE
C6
C6
66
3E
ENDCHAR
STARTCHAR H
ENCODING 72
SWIDTH 750 0
DWIDTH 9 0
BBX 7 9 1 0
BITMAP
C6
C6
C6
C6
FE
C6
C6
C6
C6
ENDCHAR
STARTCHAR I
ENCODING 73
SWIDTH 500 0
DWIDTH 6 0
BBX 2 9 2 0
BITMAP
C0
C0
C0
C0
C0
C0
C0
C0
C0
ENDCHAR
STARTCHAR J
ENCODING 74
SWIDTH 416 0
DWIDTH 5 0
BBX 4 9 0 0
BITMAP
30
30
30
30
30
30
30
B0
E0
ENDCHAR
STARTCHAR K
ENCODING 75
SWIDTH 666 0
DWIDTH 8 0
BBX 7 9 1 0
BITMAP
CC
CC
D8
F0
F0
D8
CC
C6
C6
ENDCHAR
STARTCHAR L
ENCODING 76
SWIDTH 500 0
DWIDTH 6 0
BBX 5 9 1 0
BITMAP
C0
C0
C0
C0
C0
C0
C0
C0
F8
ENDCHAR
STARTCHAR M
ENCODING 77
SWIDTH 916 0
DWIDTH 11 0
BBX 9 9 1 0
BITMAP
C180
C180
E380
E380
F780
D580
DD80
C980
C980
ENDCHAR
STARTCHAR N
ENCODING 78
SWIDTH 750 0
DWIDTH 9 0
BBX 7 9 1 0
BITMAP
C6
E6
E6
F6
D6
DE
CE
CE
C6
ENDCHAR
STARTCHAR O
ENCODING 79
SWIDTH 833 0
DWIDTH 10 0
BBX 8 9 1 0
BITMAP
3C
66
C3
C3
C3
C3
C3
66
3C
ENDCHAR
STARTCHAR P
ENCODING 80
SWIDTH 583 0
DWIDTH 7 0
BBX 6 9 1 0
BITMAP
F0
D8
CC
CC
CC
D8
F0
C0
C0
ENDCHAR
STARTCHAR Q
ENCODING 81
SWIDTH 833 0
DWIDTH 10 0
BBX 9 9 1 0
BITMAP
3C00
6600
C300
C300
DB00
CF00
C600
6700
3D80
ENDCHAR
STARTCHAR R
ENCODING 82
SWIDTH 666 0
DWIDTH 8 0
BBX 7 9 1 0
BITMAP
F8
CC
CC
CC
F8
F0
D8
CC
C6
ENDCHAR
STARTCHAR S
ENCODING 83
SWIDTH 583 0
DWIDTH 7 0
BBX 6 9 0 0
BITMAP
38
6C
60
70
38
1C
0C
CC
78
ENDCHAR
STARTCHAR T
ENCODING 84
SWIDTH 583 0
DWIDTH 7 0
BBX 6 9 1 0
BITMAP
FC
30
30
30
30
30
30
30
30
ENDCHAR
STARTCHAR U
ENCODING 85
SWIDTH 750 0
DWIDTH 9 0
BBX 7 9 1 0
BITMAP
C6
C6
C6
C6
C6
C6
C6
C6
7C
ENDCHAR
STARTCHAR V
ENCODING 86
SWIDTH 666 0
DWIDTH 8 0
BBX 7 9 1 0
BITMAP
C2
C6
C4
64
6C
68
38
38
10
ENDCHAR
STARTCHAR W
ENCODING 87
SWIDTH 1083 0
DWIDTH 13 0
BBX 12 9 1 0
BITMAP
C630
C620
C620
6F60
6B40
6B40
39C0
3180
3180
ENDCHAR
STARTCHAR X
ENCODING 88
SWIDTH 666 0
DWIDTH 8 0
BBX 7 9 1 0
BITMAP
C6
C4
6C
78
38
38
6C
4E
C6
ENDCHAR
STARTCHAR Y
ENCODING 89
SWIDTH 583 0
DWIDTH 7 0
BBX 7 9 0 0
BITMAP
C2
66
64
3C
38
18
18
18
18
ENDCHAR
STARTCHAR Z
ENCODING 90
SWIDTH 666 0
DWIDTH 8 0
BBX 7 9 1 0
BITMAP
FC
0C
18
18
30
30
60
60
FE
ENDCHAR
STARTCHAR bracketleft
ENCODING 91
SWIDTH 500 0
DWIDTH 6 0
BBX 4 12 2 -2
BITMAP
F0
C0
C0
C0
C0
C0
C0
C0
C0
C0
C0
F0
ENDCHAR
STARTCHAR backslash
ENCODING 92
SWIDTH 500 0
DWIDTH 6 0
BBX 5 11 1 -1
BITMAP
C0
C0
60
60
60
30
30
30
18
18
18
ENDCHAR
STARTCHAR bracketright
ENCODING 93
SWIDTH 500 0
DWIDTH 6 0
BBX 4 12 1 -2
BITMAP
F0
30
30
30
30
30
30
30
30
30
30
F0
ENDCHAR
STARTCHAR asciicircum
ENCODING 94
SWIDTH 500 0
DWIDTH 6 0
BBX 5 3 1 7
BITMAP
20
70
D8
ENDCHAR
STARTCHAR underscore
ENCODING 95
SWIDTH 583 0
DWIDTH 7 0
BBX 7 1 0 -2
BITMAP
FE
ENDCHAR
STARTCHAR a
ENCODING 97
SWIDTH 666 0
DWIDTH 8 0
BBX 6 7 1 0
BITMAP
78
0C
7C
CC
CC
DC
6C
ENDCHAR
STARTCHAR b
ENCODING 98
SWIDTH 583 0
DWIDTH 7 0
BBX 6 10 1 0
BITMAP
C0
C0
C0
D8
EC
CC
CC
CC
EC
D8
ENDCHAR
STARTCHAR c
ENCODING 99
SWIDTH 500 0
DWIDTH 6 0
BBX 5 7 1 0
BITMAP
70
C8
C0
C0
C0
C8
70
ENDCHAR
STARTCHAR d
ENCODING 100
SWIDTH 583 0
DWIDTH 7 0
BBX 6 10 1 0
BITMAP
0C
0C
0C
6C
DC
CC
CC
CC
DC
6C
ENDCHAR
STARTCHAR e
ENCODING 101
SWIDTH 666 0
DWIDTH 8 0
BBX 6 7 1 0
BITMAP
78
CC
CC
FC
C0
CC
78
ENDCHAR
STARTCHAR f
ENCODING 102
SWIDTH 500 0
DWIDTH 6 0
BBX 5 10 1 0
BITMAP
38
60
60
F8
60
60
60
60
60
60
ENDCHAR
STARTCHAR g
ENCODING 103
SWIDTH 583 0
DWIDTH 7 0
BBX 6 10 1 -3
BITMAP
6C
DC
CC
CC
CC
DC
6C
0C
4C
78
ENDCHAR
STARTCHAR h
ENCODING 104
SWIDTH 583 0
DWIDTH 7 0
BBX 6 10 1 0
BITMAP
C0
C0
C0
D8
EC
CC
CC
CC
CC
CC
ENDCHAR
STARTCHAR i
ENCODING 105
SWIDTH 416 0
DWIDTH 5 0
BBX 2 10 2 0
BITMAP
C0
C0
00
40
C0
C0
C0
C0
C0
C0
ENDCHAR
STARTCHAR j
ENCODING 106
SWIDTH 416 0
DWIDTH 5 0
BBX 4 13 0 -3
BITMAP
30
30
00
10
30
30
30
30
30
30
30
30
E0
ENDCHAR
STARTCHAR k
ENCODING 107
SWIDTH 583 0
DWIDTH 7 0
BBX 6 10 1 0
BITMAP
C0
C0
C0
CC
D8
F0
F0
D8
CC
CC
ENDCHAR
STARTCHAR l
ENCODING 108
SWIDTH 500 0
DWIDTH 6 0
BBX 5 10 1 0
BITMAP
C0
C0
C0
C0
C0
C0
C0
C0
C8
70
ENDCHAR
STARTCHAR m
ENCODING 109
SWIDTH 1000 0
DWIDTH 12 0
BBX 10 7 1 0
BITMAP
D980
EEC0
CCC0
CCC0
CCC0
CCC0
CCC0
ENDCHAR
STARTCHAR n
ENCODING 110
SWIDTH 666 0
DWIDTH 8 0
BBX 6 7 1 0
BITMAP
D8
EC
CC
CC
CC
CC
CC
ENDCHAR
STARTCHAR o
ENCODING 111
SWIDTH 666 0
DWIDTH 8 0
BBX 6 7 1 0
BITMAP
78
CC
CC
CC
CC
CC
78
ENDCHAR
STARTCHAR p
ENCODING 112
SWIDTH 583 0
DWIDTH 7 0
BBX 6 9 1 -2
BITMAP
D8
EC
CC
CC
CC
EC
D8
C0
C0
ENDCHAR
STARTCHAR q
ENCODING 113
SWIDTH 583 0
DWIDTH 7 0
BBX 6 9 1 -2
BITMAP
6C
DC
CC
CC
CC
DC
6C
0C
0C
ENDCHAR
STARTCHAR r
ENCODING 114
SWIDTH 416 0
DWIDTH 5 0
BBX 4 7 1 0
BITMAP
D0
F0
C0
C0
C0
C0
C0
ENDCHAR
STARTCHAR s
ENCODING 115
SWIDTH 500 0
DWIDTH 6 0
BBX 5 7 1 0
BITMAP
70
C0
E0
70
38
18
F0
ENDCHAR
STARTCHAR t
ENCODING 116
SWIDTH 416 0
DWIDTH 5 0
BBX 5 9 0 0
BITMAP
60
60
F8
60
60
60
60
60
38
ENDCHAR
STARTCHAR u
ENCODING 117
SWIDTH 666 0
DWIDTH 8 0
BBX 6 7 1 0
BITMAP
CC
CC
CC
CC
CC
DC
6C
ENDCHAR
STARTCHAR v
ENCODING 118
SWIDTH 666 0
DWIDTH 8 0
BBX 7 7 1 0
BITMAP
C6
C4
6C
68
78
30
30
ENDCHAR
STARTCHAR w
ENCODING 119
SWIDTH 833 0
DWIDTH 10 0
BBX 10 7 0 0
BITMAP
CC40
CC40
CCC0
6E80
7F80
3300
3300
ENDCHAR
STARTCHAR x
ENCODING 120
SWIDTH 583 0
DWIDTH 7 0
BBX 6 7 1 0
BITMAP
CC
68
78
30
78
58
CC
ENDCHAR
STARTCHAR y
ENCODING 121
SWIDTH 666 0
DWIDTH 8 0
BBX 7 9 1 -2
BITMAP
C6
C4
64
6C
38
38
18
30
60
ENDCHAR
STARTCHAR z
ENCODING 122
SWIDTH 583 0
DWIDTH 7 0
BBX 6 7 1 0
BITMAP
F8
18
30
60
60
C0
FC
ENDCHAR
STARTCHAR braceleft
ENCODING 123
SWIDTH 500 0
DWIDTH 6 0
BBX 4 12 1 -2
BITMAP
30
60
60
60
60
C0
60
60
60
60
60
30
ENDCHAR
STARTCHAR bar
ENCODING 124
SWIDTH 416 0
DWIDTH 5 0
BBX 2 12 2 -2
BITMAP
C0
C0
C0
C0
C0
C0
C0
C0
C0
C0
C0
C0
ENDCHAR
STARTCHAR braceright
ENCODING 125
SWIDTH 500 0
DWIDTH 6 0
BBX 4 12 1 -2
BITMAP
C0
60
60
60
60
30
60
60
60
60
60
C0
ENDCHAR
STARTCHAR Euro
ENCODING 164
SWIDTH 666 0
DWIDTH 8 0
BBX 7 9 1 0
BITMAP
1E
32
60
FC
60
F8
60
72
3C
ENDCHAR
STARTCHAR degree
ENCODING 176
SWIDTH 333 0
DWIDTH 4 0
BBX 3 3 1 7
BITMAP
E0
A0
E0
ENDCHAR
STARTCHAR Agrave
ENCODING 192
SWIDTH 666 0
DWIDTH 8 0
BBX 7 12 1 0
BITMAP
30
10
00
18
38
38
2C
6C
4C
7E
C6
C6
ENDCHAR
STARTCHAR Acircumflex
ENCODING 194
SWIDTH 666 0
DWIDTH 8 0
BBX 7 12 1 0
BITMAP
18
2C
00
18
38
38
2C
6C
4C
7E
C6
C6
ENDCHAR
STARTCHAR Ccedilla
ENCODING 199
SWIDTH 666 0
DWIDTH 8 0
BBX 6 12 1 -3
BITMAP
38
6C
C0
C0
C0
C0
C0
6C
38
10
10
70
ENDCHAR
STARTCHAR Egrave
ENCODING 200
SWIDTH 583 0
DWIDTH 7 0
BBX 5 12 1 0
BITMAP
60
20
00
F8
C0
C0
C0
F0
C0
C0
C0
F8
ENDCHAR
STARTCHAR Eacute
ENCODING 201
SWIDTH 583 0
DWIDTH 7 0
BBX 5 12 1 0
BITMAP
30
20
00
F8
C0
C0
C0
F0
C0
C0
C0
F8
ENDCHAR
STARTCHAR Ecircumflex
ENCODING 202
SWIDTH 583 0
DWIDTH 7 0
BBX 5 12 1 0
BITMAP
30
58
00
F8
C0
C0
C0
F0
C0
C0
C0
F8
ENDCHAR
STARTCHAR Edieresis
ENCODING 203
SWIDTH 583 0
DWIDTH 7 0
BBX 5 12 1 0
BITMAP
48
48
00
F8
C0
C0
C0
F0
C0
C0
C0
F8
ENDCHAR
STARTCHAR Icircumflex
ENCODING 206
SWIDTH 500 0
DWIDTH 6 0
BBX 4 12 1 0
BITMAP
60
B0
00
60
60
60
60
60
60
60
60
60
ENDCHAR
STARTCHAR Idieresis
ENCODING 207
SWIDTH 500 0
DWIDTH 6 0
BBX 4 12 1 0
BITMAP
90
90
00
60
60
60
60
60
60
60
60
60
ENDCHAR
STARTCHAR Ocircumflex
ENCODING 212
SWIDTH 833 0
DWIDTH 10 0
BBX 8 12 1 0
BITMAP
18
2C
00
3C
66
C3
C3
C3
C3
C3
66
3C
ENDCHAR
STARTCHAR Ugrave
ENCODING 217
SWIDTH 750 0
DWIDTH 9 0
BBX 7 12 1 0
BITMAP
30
10
00
C6
C6
C6
C6
C6
C6
C6
C6
7C
ENDCHAR
STARTCHAR Ucircumflex
ENCODING 219
SWIDTH 750 0
DWIDTH 9 0
BBX 7 12 1 0
BITMAP
18
2C
00
C6
C6
C6
C6
C6
C6
C6
C6
7C
ENDCHAR
STARTCHAR Udieresis
ENCODING 220
SWIDTH 750 0
DWIDTH 9 0
BBX 7 12 1 0
BITMAP
44
44
00
C6
C6
C6
C6
C6
C6
C6
C6
7C
ENDCHAR
STARTCHAR agrave
ENCODING 224
SWIDTH 666 0
DWIDTH 8 0
BBX 6 10 1 0
BITMAP
30
10
00
78
0C
7C
CC
CC
DC
6C
ENDCHAR
STARTCHAR acircumflex
ENCODING 226
SWIDTH 666 0
DWIDTH 8 0
BBX 6 10 1 0
BITMAP
30
58
00
78
0C
7C
CC
CC
DC
6C
ENDCHAR
STARTCHAR ccedilla
ENCODING 231
SWIDTH 583 0
DWIDTH 7 0
BBX 5 9 1 -2
BITMAP
70
D8
C0
C0
C0
D8
70
20
60
ENDCHAR
STARTCHAR egrave
ENCODING 232
SWIDTH 666 0
DWIDTH 8 0
BBX 6 10 1 0
BITMAP
60
20
00
78
CC
CC
FC
C0
CC
78
ENDCHAR
STARTCHAR eacute
ENCODING 233
SWIDTH 666 0
DWIDTH 8 0
BBX 6 10 1 0
BITMAP
30
20
00
78
CC
CC
FC
C0
CC
78
ENDCHAR
STARTCHAR ecircumflex
ENCODING 234
SWIDTH 666 0
DWIDTH 8 0
BBX 6 10 1 0
BITMAP
30
58
00
78
CC
CC
FC
C0
CC
78
ENDCHAR
STARTCHAR edieresis
ENCODING 235
SWIDTH 666 0
DWIDTH 8 0
BBX 6 10 1 0
BITMAP
48
48
00
78
CC
CC
FC
C0
CC
78
ENDCHAR
STARTCHAR icircumflex
ENCODING 238
SWIDTH 416 0
DWIDTH 5 0
BBX 4 10 1 0
BITMAP
60
B0
00
20
60
60
60
60
60
60
ENDCHAR
STARTCHAR idieresis
ENCODING 239
SWIDTH 416 0
DWIDTH 5 0
BBX 4 10 1 0
BITMAP
90
90
00
20
60
60
60
60
60
60
ENDCHAR
STARTCHAR ocircumflex
ENCODING 244
SWIDTH 666 0
DWIDTH 8 0
BBX 6 10 1 0
BITMAP
30
58
00
78
CC
CC
CC
CC
CC
78
ENDCHAR
STARTCHAR ugrave
ENCODING 249
SWIDTH 666 0
DWIDTH 8 0
BBX 6 10 1 0
BITMAP
60
20
00
CC
CC
CC
CC
CC
DC
6C
ENDCHAR
STARTCHAR ucircumflex
ENCODING 251
SWIDTH 666 0
DWIDTH 8 0
BBX 6 10 1 0
BITMAP
30
58
00
CC
CC
CC
CC
CC
DC
6C
ENDCHAR
STARTCHAR udieresis
ENCODING 252
SWIDTH 666 0
DWIDTH 8 0
BBX 6 10 1 0
BITMAP
48
48
00
CC
CC
CC
CC
CC
DC
6C
ENDCHAR
ENDFONT
